# xmcd
#
# Track frame offsets:
#	150
#	16117
#	28950
#
# Disc length: 571
#
# Revision: 4
# Processed by: cddbd v1.5.1PL0 Copyright (c) Steve Scherf et al.
# Submitted via: SuperSonic v3.0
# Normalized: r2:TDELIM( - ),TSWAP
#
DISCID=1a023903
DTITLE=Various, Country - DEMO1
DYEAR=1900
DGENRE=
TTITLE0=JARA LANE - 'TIL I KISSED YOU
TTITLE1=LEE GREENWOOD - HOLDIN' A GOOD HAND
TTITLE2=LARRY GATLIN and THE GATLIN BROTHERS - BOOGIE and BEETHOVEN
EXTD=
EXTT0=
EXTT1=
EXTT2=
PLAYORDER=
